{"accessors":[{"bufferView":0,"componentType":5125,"count":40200,"max":[14510.0],"min":[0.0],"type":"SCALAR"},{"bufferView":1,"componentType":5126,"count":14511,"max":[0.09099999815225601,0.0008009999874047935,0.05768140032887459],"min":[-0.09099999815225601,-0.0008009999874047935,-0.06031860038638115],"type":"VEC3"},{"bufferView":2,"componentType":5126,"count":14511,"max":[1.0,1.0,1.0],"min":[-1.0,-1.0,-1.0],"type":"VEC3"},{"bufferView":3,"componentType":5125,"count":216390,"max":[73848.0],"min":[0.0],"type":"SCALAR"},{"bufferView":4,"componentType":5126,"count":73849,"max":[0.02036849409341812,0.0,0.10756999999284744],"min":[-0.02036849409341812,-0.05505000054836273,-0.10598260164260864],"type":"VEC3"},{"bufferView":5,"componentType":5126,"count":73849,"max":[1.0,1.0,1.0],"min":[-1.0,-1.0,-1.0],"type":"VEC3"},{"bufferView":6,"componentType":5125,"count":57720,"max":[20209.0],"min":[0.0],"type":"SCALAR"},{"bufferView":7,"componentType":5126,"count":20210,"max":[0.0540480874478817,0.000826000003144145,0.0540480874478817],"min":[-0.0540480874478817,-0.000826000003144145,-0.0540480874478817],"type":"VEC3"},{"bufferView":8,"componentType":5126,"count":20210,"max":[1.0,1.0,1.0],"min":[-1.0,-1.0,-1.0],"type":"VEC3"},{"bufferView":9,"componentType":5125,"count":7968,"max":[2925.0],"min":[0.0],"type":"SCALAR"},{"bufferView":10,"componentType":5126,"count":2926,"max":[0.013849999755620957,0.04149999842047691,0.013817712664604187],"min":[-0.013849999755620957,-0.0024999999441206457,-0.013817712664604187],"type":"VEC3"},{"bufferView":11,"componentType":5126,"count":2926,"max":[1.0,1.0,1.0],"min":[-1.0,-1.0,-1.0],"type":"VEC3"},{"bufferView":12,"componentType":5125,"count":15480,"max":[4941.0],"min":[1.0],"type":"SCALAR"},{"bufferView":13,"componentType":5126,"count":4942,"max":[0.12999999523162843,0.010514347814023495,0.024836134165525438],"min":[-0.12999999523162843,-0.0005742998328059912,-0.024836134165525438],"type":"VEC3"},{"bufferView":14,"componentType":5126,"count":4942,"max":[1.0,1.0,1.0],"min":[-1.0,-1.0,-1.0],"type":"VEC3"},{"bufferView":15,"componentType":5125,"count":41154,"max":[14345.0],"min":[0.0],"type":"SCALAR"},{"bufferView":16,"componentType":5126,"count":14346,"max":[0.10521082580089569,0.14329326152801515,0.01899999938905239],"min":[0.0011099118273705245,0.0,-0.008999999612569809],"type":"VEC3"},{"bufferView":17,"componentType":5126,"count":14346,"max":[1.0,1.0,1.0],"min":[-1.0,-1.0,-1.0],"type":"VEC3"},{"bufferView":18,"componentType":5125,"count":24456,"max":[7544.0],"min":[0.0],"type":"SCALAR"},{"bufferView":19,"componentType":5126,"count":7545,"max":[0.006062771659344435,0.0361807607114315,0.03327522799372673],"min":[-0.0018590487306937576,0.028380760923027993,0.026255182921886445],"type":"VEC3"},{"bufferView":20,"componentType":5126,"count":7545,"max":[0.9999945163726807,1.0,0.9999168515205383],"min":[-0.9999945163726807,-1.0,-0.9999168515205383],"type":"VEC3"},{"bufferView":21,"componentType":5125,"count":24456,"max":[7544.0],"min":[0.0],"type":"SCALAR"},{"bufferView":22,"componentType":5126,"count":7545,"max":[0.056531377136707309,0.0361807607114315,0.0657239556312561],"min":[0.04860955476760864,0.028380760923027993,0.05870391055941582],"type":"VEC3"},{"bufferView":23,"componentType":5126,"count":7545,"max":[0.9999945163726807,1.0,0.9999168515205383],"min":[-0.9999945163726807,-1.0,-0.9999168515205383],"type":"VEC3"},{"bufferView":24,"componentType":5125,"count":4440,"max":[1649.0],"min":[0.0],"type":"SCALAR"},{"bufferView":25,"componentType":5126,"count":1650,"max":[0.05535438656806946,0.03528076037764549,0.06529486924409867],"min":[-0.0006820585113018751,0.03438076004385948,0.026684269309043886],"type":"VEC3"},{"bufferView":26,"componentType":5126,"count":1650,"max":[1.0,1.0,1.0],"min":[-1.0,-1.0,-1.0],"type":"VEC3"},{"bufferView":27,"componentType":5125,"count":6636,"max":[2471.0],"min":[0.0],"type":"SCALAR"},{"bufferView":28,"componentType":5126,"count":2472,"max":[0.05788247659802437,0.030180761590600015,0.0669100359082222],"min":[-0.003210147377103567,0.029280761256814004,0.0250691007822752],"type":"VEC3"},{"bufferView":29,"componentType":5126,"count":2472,"max":[1.0,1.0,1.0],"min":[-1.0,-1.0,-1.0],"type":"VEC3"},{"bufferView":30,"componentType":5125,"count":25536,"max":[7752.0],"min":[0.0],"type":"SCALAR"},{"bufferView":31,"componentType":5126,"count":7753,"max":[0.006062771659344435,0.0361807607114315,0.0657239556312561],"min":[-0.0018590487306937576,0.028380760923027993,0.05870391055941582],"type":"VEC3"},{"bufferView":32,"componentType":5126,"count":7753,"max":[0.9999945163726807,1.0,0.9999168515205383],"min":[-0.9999945163726807,-1.0,-0.9999168515205383],"type":"VEC3"},{"bufferView":33,"componentType":5125,"count":24456,"max":[7548.0],"min":[0.0],"type":"SCALAR"},{"bufferView":34,"componentType":5126,"count":7549,"max":[0.056531377136707309,0.0361807607114315,0.03327522799372673],"min":[0.04860955476760864,0.028380760923027993,0.026255182921886445],"type":"VEC3"},{"bufferView":35,"componentType":5126,"count":7549,"max":[0.9999945163726807,1.0,0.9999168515205383],"min":[-0.9999945163726807,-1.0,-0.9999168515205383],"type":"VEC3"},{"bufferView":36,"componentType":5125,"count":3444,"max":[1193.0],"min":[0.0],"type":"SCALAR"},{"bufferView":37,"componentType":5126,"count":1194,"max":[0.04749999940395355,0.029999999329447748,0.019999999552965165],"min":[-0.04749999940395355,-8.673617379884036e-19,-0.019999999552965165],"type":"VEC3"},{"bufferView":38,"componentType":5126,"count":1194,"max":[1.0,1.0,1.0],"min":[-1.0,-1.0,-1.0],"type":"VEC3"},{"bufferView":39,"componentType":5125,"count":9114,"max":[3435.0],"min":[0.0],"type":"SCALAR"},{"bufferView":40,"componentType":5126,"count":3436,"max":[0.025315674021840097,0.013000000268220902,0.019812000915408136],"min":[-0.019812000915408136,-6.098637220230962e-19,-0.019812000915408136],"type":"VEC3"},{"bufferView":41,"componentType":5126,"count":3436,"max":[1.0,1.0,1.0],"min":[-1.0,-1.0,-1.0],"type":"VEC3"},{"bufferView":42,"componentType":5125,"count":9996,"max":[3497.0],"min":[0.0],"type":"SCALAR"},{"bufferView":43,"componentType":5126,"count":3498,"max":[0.0182499997317791,0.14489999413490296,0.0182499997317791],"min":[-0.0182499997317791,0.0,-0.0182499997317791],"type":"VEC3"},{"bufferView":44,"componentType":5126,"count":3498,"max":[1.0,1.0,1.0],"min":[-1.0,-1.0,-1.0],"type":"VEC3"},{"bufferView":45,"componentType":5125,"count":21084,"max":[6571.0],"min":[0.0],"type":"SCALAR"},{"bufferView":46,"componentType":5126,"count":6572,"max":[0.02685057744383812,0.012500000186264515,0.027000000700354577],"min":[-0.02685057558119297,0.0,-0.026873541995882989],"type":"VEC3"},{"bufferView":47,"componentType":5126,"count":6572,"max":[1.0,1.0,1.0],"min":[-1.0,-1.0,-1.0],"type":"VEC3"},{"bufferView":48,"componentType":5125,"count":12840,"max":[4369.0],"min":[0.0],"type":"SCALAR"},{"bufferView":49,"componentType":5126,"count":4370,"max":[0.0540480874478817,0.05082499980926514,0.0540480874478817],"min":[-0.0540480874478817,-0.0008249999955296516,-0.0540480874478817],"type":"VEC3"},{"bufferView":50,"componentType":5126,"count":4370,"max":[1.0,1.0,1.0],"min":[-1.0,-1.0,-1.0],"type":"VEC3"}],"asset":{"generator":"SimLab GLTF","version":"2.0"},"bufferViews":[{"buffer":0,"byteLength":160800,"target":34963},{"buffer":0,"byteLength":174132,"byteOffset":160800,"byteStride":12,"target":34962},{"buffer":0,"byteLength":174132,"byteOffset":334932,"byteStride":12,"target":34962},{"buffer":0,"byteLength":865560,"byteOffset":509064,"target":34963},{"buffer":0,"byteLength":886188,"byteOffset":1374624,"byteStride":12,"target":34962},{"buffer":0,"byteLength":886188,"byteOffset":2260812,"byteStride":12,"target":34962},{"buffer":0,"byteLength":230880,"byteOffset":3147000,"target":34963},{"buffer":0,"byteLength":242520,"byteOffset":3377880,"byteStride":12,"target":34962},{"buffer":0,"byteLength":242520,"byteOffset":3620400,"byteStride":12,"target":34962},{"buffer":0,"byteLength":31872,"byteOffset":3862920,"target":34963},{"buffer":0,"byteLength":35112,"byteOffset":3894792,"byteStride":12,"target":34962},{"buffer":0,"byteLength":35112,"byteOffset":3929904,"byteStride":12,"target":34962},{"buffer":0,"byteLength":61920,"byteOffset":3965016,"target":34963},{"buffer":0,"byteLength":59304,"byteOffset":4026936,"byteStride":12,"target":34962},{"buffer":0,"byteLength":59304,"byteOffset":4086240,"byteStride":12,"target":34962},{"buffer":0,"byteLength":164616,"byteOffset":4145544,"target":34963},{"buffer":0,"byteLength":172152,"byteOffset":4310160,"byteStride":12,"target":34962},{"buffer":0,"byteLength":172152,"byteOffset":4482312,"byteStride":12,"target":34962},{"buffer":0,"byteLength":97824,"byteOffset":4654464,"target":34963},{"buffer":0,"byteLength":90540,"byteOffset":4752288,"byteStride":12,"target":34962},{"buffer":0,"byteLength":90540,"byteOffset":4842828,"byteStride":12,"target":34962},{"buffer":0,"byteLength":97824,"byteOffset":4933368,"target":34963},{"buffer":0,"byteLength":90540,"byteOffset":5031192,"byteStride":12,"target":34962},{"buffer":0,"byteLength":90540,"byteOffset":5121732,"byteStride":12,"target":34962},{"buffer":0,"byteLength":17760,"byteOffset":5212272,"target":34963},{"buffer":0,"byteLength":19800,"byteOffset":5230032,"byteStride":12,"target":34962},{"buffer":0,"byteLength":19800,"byteOffset":5249832,"byteStride":12,"target":34962},{"buffer":0,"byteLength":26544,"byteOffset":5269632,"target":34963},{"buffer":0,"byteLength":29664,"byteOffset":5296176,"byteStride":12,"target":34962},{"buffer":0,"byteLength":29664,"byteOffset":5325840,"byteStride":12,"target":34962},{"buffer":0,"byteLength":102144,"byteOffset":5355504,"target":34963},{"buffer":0,"byteLength":93036,"byteOffset":5457648,"byteStride":12,"target":34962},{"buffer":0,"byteLength":93036,"byteOffset":5550684,"byteStride":12,"target":34962},{"buffer":0,"byteLength":97824,"byteOffset":5643720,"target":34963},{"buffer":0,"byteLength":90588,"byteOffset":5741544,"byteStride":12,"target":34962},{"buffer":0,"byteLength":90588,"byteOffset":5832132,"byteStride":12,"target":34962},{"buffer":0,"byteLength":13776,"byteOffset":5922720,"target":34963},{"buffer":0,"byteLength":14328,"byteOffset":5936496,"byteStride":12,"target":34962},{"buffer":0,"byteLength":14328,"byteOffset":5950824,"byteStride":12,"target":34962},{"buffer":0,"byteLength":36456,"byteOffset":5965152,"target":34963},{"buffer":0,"byteLength":41232,"byteOffset":6001608,"byteStride":12,"target":34962},{"buffer":0,"byteLength":41232,"byteOffset":6042840,"byteStride":12,"target":34962},{"buffer":0,"byteLength":39984,"byteOffset":6084072,"target":34963},{"buffer":0,"byteLength":41976,"byteOffset":6124056,"byteStride":12,"target":34962},{"buffer":0,"byteLength":41976,"byteOffset":6166032,"byteStride":12,"target":34962},{"buffer":0,"byteLength":84336,"byteOffset":6208008,"target":34963},{"buffer":0,"byteLength":78864,"byteOffset":6292344,"byteStride":12,"target":34962},{"buffer":0,"byteLength":78864,"byteOffset":6371208,"byteStride":12,"target":34962},{"buffer":0,"byteLength":51360,"byteOffset":6450072,"target":34963},{"buffer":0,"byteLength":52440,"byteOffset":6501432,"byteStride":12,"target":34962},{"buffer":0,"byteLength":52440,"byteOffset":6553872,"byteStride":12,"target":34962}],"buffers":[{"byteLength":6606312,"uri":"f450 drone.bin"}],"extensionsUsed":["KHR_materials_pbrSpecularGlossiness"],"materials":[{"extensions":{"KHR_materials_pbrSpecularGlossiness":{"diffuseFactor":[0.48588237166404726,0.06862745434045792,0.06862745434045792,1.0],"specularFactor":[0.034705884754657748,0.0049019609577953819,0.0049019609577953819],"glossinessFactor":0.5}},"name":"Mtl1","alphaMode":"MASK","doubleSided":true,"pbrMetallicRoughness":{"baseColorFactor":[0.48588237166404726,0.06862745434045792,0.06862745434045792,1.0],"metallicFactor":0.5}},{"extensions":{"KHR_materials_pbrSpecularGlossiness":{"diffuseFactor":[0.7921568751335144,0.8196078538894653,0.9333333373069763,1.0],"specularFactor":[0.3960784375667572,0.40980392694473269,0.46666666865348818],"glossinessFactor":0.5}},"name":"Mtl2","alphaMode":"MASK","doubleSided":true,"pbrMetallicRoughness":{"baseColorFactor":[0.7921568751335144,0.8196078538894653,0.9333333373069763,1.0],"metallicFactor":0.5,"roughnessFactor":0.5}},{"extensions":{"KHR_materials_pbrSpecularGlossiness":{"diffuseFactor":[0.48588237166404726,0.06862745434045792,0.06862745434045792,1.0],"specularFactor":[0.034705884754657748,0.0049019609577953819,0.0049019609577953819],"glossinessFactor":0.5}},"name":"Mtl3","alphaMode":"MASK","doubleSided":true,"pbrMetallicRoughness":{"baseColorFactor":[0.48588237166404726,0.06862745434045792,0.06862745434045792,1.0],"metallicFactor":0.5}},{"extensions":{"KHR_materials_pbrSpecularGlossiness":{"diffuseFactor":[0.0,0.007843137718737126,0.027450980618596078,1.0],"specularFactor":[0.0,0.003921568859368563,0.013725490309298039],"glossinessFactor":0.5}},"name":"Mtl4","alphaMode":"MASK","doubleSided":true,"pbrMetallicRoughness":{"baseColorFactor":[0.0,0.007843137718737126,0.027450980618596078,1.0],"metallicFactor":0.5}},{"extensions":{"KHR_materials_pbrSpecularGlossiness":{"diffuseFactor":[0.250980406999588,0.250980406999588,0.250980406999588,1.0],"specularFactor":[0.250980406999588,0.250980406999588,0.250980406999588],"glossinessFactor":0.5}},"name":"Mtl5","alphaMode":"MASK","doubleSided":true,"pbrMetallicRoughness":{"baseColorFactor":[0.250980406999588,0.250980406999588,0.250980406999588,1.0],"metallicFactor":0.5,"roughnessFactor":0.5}},{"extensions":{"KHR_materials_pbrSpecularGlossiness":{"diffuseFactor":[0.0,0.007843137718737126,0.027450980618596078,1.0],"specularFactor":[0.0,0.003921568859368563,0.013725490309298039],"glossinessFactor":0.5}},"name":"Mtl6","alphaMode":"MASK","doubleSided":true,"pbrMetallicRoughness":{"baseColorFactor":[0.0,0.007843137718737126,0.027450980618596078,1.0],"metallicFactor":0.5}},{"extensions":{"KHR_materials_pbrSpecularGlossiness":{"diffuseFactor":[0.03921568766236305,0.4901960790157318,0.7098039388656616,1.0],"specularFactor":[0.0117647061124444,0.14705882966518403,0.21294118463993073],"glossinessFactor":0.5}},"name":"Mtl8","alphaMode":"MASK","doubleSided":true,"pbrMetallicRoughness":{"baseColorFactor":[0.03921568766236305,0.4901960790157318,0.7098039388656616,1.0],"metallicFactor":0.5,"roughnessFactor":0.5}},{"extensions":{"KHR_materials_pbrSpecularGlossiness":{"diffuseFactor":[0.054901961237192157,0.054901961237192157,0.054901961237192157,1.0],"specularFactor":[0.027450980618596078,0.027450980618596078,0.027450980618596078],"glossinessFactor":0.5}},"name":"Mtl9","alphaMode":"MASK","doubleSided":true,"pbrMetallicRoughness":{"baseColorFactor":[0.054901961237192157,0.054901961237192157,0.054901961237192157,1.0],"metallicFactor":0.5}},{"extensions":{"KHR_materials_pbrSpecularGlossiness":{"diffuseFactor":[0.8745098114013672,0.5176470875740051,0.0,1.0],"specularFactor":[0.4372549057006836,0.25882354378700259,0.0],"glossinessFactor":0.5}},"name":"Mtla","alphaMode":"MASK","doubleSided":true,"pbrMetallicRoughness":{"baseColorFactor":[0.8745098114013672,0.5176470875740051,0.0,1.0],"metallicFactor":0.5,"roughnessFactor":0.5}},{"extensions":{"KHR_materials_pbrSpecularGlossiness":{"diffuseFactor":[0.0,0.0,1.0,1.0],"specularFactor":[0.0,0.0,0.5],"glossinessFactor":0.5}},"name":"Mtlb","alphaMode":"MASK","doubleSided":true,"pbrMetallicRoughness":{"baseColorFactor":[0.0,0.0,1.0,1.0],"metallicFactor":0.5,"roughnessFactor":0.5}},{"extensions":{"KHR_materials_pbrSpecularGlossiness":{"diffuseFactor":[0.7921568751335144,0.8196078538894653,0.9333333373069763,1.0],"specularFactor":[0.3960784375667572,0.40980392694473269,0.46666666865348818],"glossinessFactor":0.5}},"name":"Mtl10","alphaMode":"MASK","doubleSided":true,"pbrMetallicRoughness":{"baseColorFactor":[0.7921568751335144,0.8196078538894653,0.9333333373069763,1.0],"metallicFactor":0.5,"roughnessFactor":0.5}},{"extensions":{"KHR_materials_pbrSpecularGlossiness":{"diffuseFactor":[0.0,0.007843137718737126,0.027450980618596078,1.0],"specularFactor":[0.0,0.003921568859368563,0.013725490309298039],"glossinessFactor":0.5}},"name":"Mtl11","alphaMode":"MASK","doubleSided":true,"pbrMetallicRoughness":{"baseColorFactor":[0.0,0.007843137718737126,0.027450980618596078,1.0],"metallicFactor":0.5}},{"extensions":{"KHR_materials_pbrSpecularGlossiness":{"diffuseFactor":[0.12627451121807099,0.12627451121807099,0.12627451121807099,1.0],"specularFactor":[0.009019607678055764,0.009019607678055764,0.009019607678055764],"glossinessFactor":0.5}},"name":"Mtl12","alphaMode":"MASK","doubleSided":true,"pbrMetallicRoughness":{"baseColorFactor":[0.12627451121807099,0.12627451121807099,0.12627451121807099,1.0],"metallicFactor":0.5}}],"meshes":[{"primitives":[{"attributes":{"NORMAL":2,"POSITION":1},"indices":0,"material":0,"mode":4}]},{"primitives":[{"attributes":{"NORMAL":5,"POSITION":4},"indices":3,"material":1,"mode":4}]},{"primitives":[{"attributes":{"NORMAL":5,"POSITION":4},"indices":3,"material":1,"mode":4}]},{"primitives":[{"attributes":{"NORMAL":5,"POSITION":4},"indices":3,"material":1,"mode":4}]},{"primitives":[{"attributes":{"NORMAL":5,"POSITION":4},"indices":3,"material":1,"mode":4}]},{"primitives":[{"attributes":{"NORMAL":8,"POSITION":7},"indices":6,"material":2,"mode":4}]},{"primitives":[{"attributes":{"NORMAL":11,"POSITION":10},"indices":9,"material":3,"mode":4}]},{"primitives":[{"attributes":{"NORMAL":14,"POSITION":13},"indices":12,"material":4,"mode":4}]},{"primitives":[{"attributes":{"NORMAL":17,"POSITION":16},"indices":15,"material":5,"mode":4}]},{"primitives":[{"attributes":{"NORMAL":17,"POSITION":16},"indices":15,"material":5,"mode":4}]},{"primitives":[{"attributes":{"NORMAL":17,"POSITION":16},"indices":15,"material":5,"mode":4}]},{"primitives":[{"attributes":{"NORMAL":17,"POSITION":16},"indices":15,"material":5,"mode":4}]},{"primitives":[{"attributes":{"NORMAL":20,"POSITION":19},"indices":18,"material":6,"mode":4}]},{"primitives":[{"attributes":{"NORMAL":23,"POSITION":22},"indices":21,"material":6,"mode":4}]},{"primitives":[{"attributes":{"NORMAL":26,"POSITION":25},"indices":24,"material":7,"mode":4}]},{"primitives":[{"attributes":{"NORMAL":29,"POSITION":28},"indices":27,"material":7,"mode":4}]},{"primitives":[{"attributes":{"NORMAL":32,"POSITION":31},"indices":30,"material":6,"mode":4}]},{"primitives":[{"attributes":{"NORMAL":35,"POSITION":34},"indices":33,"material":6,"mode":4}]},{"primitives":[{"attributes":{"NORMAL":38,"POSITION":37},"indices":36,"material":8,"mode":4}]},{"primitives":[{"attributes":{"NORMAL":41,"POSITION":40},"indices":39,"material":9,"mode":4}]},{"primitives":[{"attributes":{"NORMAL":44,"POSITION":43},"indices":42,"material":10,"mode":4}]},{"primitives":[{"attributes":{"NORMAL":47,"POSITION":46},"indices":45,"material":11,"mode":4}]},{"primitives":[{"attributes":{"NORMAL":50,"POSITION":49},"indices":48,"material":12,"mode":4}]},{"primitives":[{"attributes":{"NORMAL":11,"POSITION":10},"indices":9,"material":3,"mode":4}]},{"primitives":[{"attributes":{"NORMAL":11,"POSITION":10},"indices":9,"material":3,"mode":4}]},{"primitives":[{"attributes":{"NORMAL":11,"POSITION":10},"indices":9,"material":3,"mode":4}]},{"primitives":[{"attributes":{"NORMAL":14,"POSITION":13},"indices":12,"material":4,"mode":4}]},{"primitives":[{"attributes":{"NORMAL":14,"POSITION":13},"indices":12,"material":4,"mode":4}]},{"primitives":[{"attributes":{"NORMAL":14,"POSITION":13},"indices":12,"material":4,"mode":4}]}],"nodes":[{"children":[1,2,4,6,8,10,12,14,16,18,20,22,24,26,33,35,37,42,44,46,48,50,52,54],"matrix":[1.0,0.0,0.0,0.0,0.0,4.4896593387466768e-11,-1.0,0.0,0.0,1.0,4.4896593387466768e-11,0.0,0.0,0.0,0.0,1.0]},{"extras":{},"name":"Camera-1","rotation":[-0.7071067690849304,0.0,0.0,-0.7071067690849304],"translation":[0.0,-2.181584596633911,0.007852870970964432]},{"extras":{},"name":"Bottom platew-1","children":[3],"rotation":[-0.7071067690849304,0.0,0.0,-0.7071067690849304],"translation":[0.0,4.898587175111185e-20,0.0007999999797903001]},{"extras":{},"name":"Body_1","mesh":0,"rotation":[0.0,0.0,0.0,-1.0]},{"extras":{},"name":"Armw-1","children":[5],"rotation":[-0.27059805393218996,0.6532815098762512,0.6532815098762512,-0.27059805393218996],"translation":[0.0983673483133316,-0.09837803989648819,0.04019999876618385]},{"extras":{},"name":"Body_1","mesh":1,"rotation":[0.0,0.0,0.0,-1.0]},{"extras":{},"name":"Armw-2","children":[7],"rotation":[-0.27059805393218996,-0.6532815098762512,-0.6532815098762512,-0.27059805393218996],"translation":[-0.09837803989648819,-0.0983673483133316,0.04019999876618385]},{"extras":{},"name":"Body_1","mesh":2,"rotation":[0.0,0.0,0.0,-1.0]},{"extras":{},"name":"Armw-3","children":[9],"rotation":[-0.6532815098762512,0.27059805393218996,0.27059805393218996,-0.6532815098762512],"translation":[0.09837803989648819,0.0983673483133316,0.04019999876618385]},{"extras":{},"name":"Body_1","mesh":3,"rotation":[0.0,0.0,0.0,-1.0]},{"extras":{},"name":"Armw-4","children":[11],"rotation":[-0.6532815098762512,-0.27059805393218996,-0.27059805393218996,-0.6532815098762512],"translation":[-0.0983673483133316,0.09837803989648819,0.04019999876618385]},{"extras":{},"name":"Body_1","mesh":4,"rotation":[0.0,0.0,0.0,-1.0]},{"extras":{},"name":"Top platew-1","children":[13],"rotation":[-0.5,-0.5,-0.5,-0.5],"translation":[-1.887379141862766e-15,-2.162532712580642e-15,0.039230115711688998]},{"extras":{},"name":"Body_1","mesh":5,"rotation":[0.0,0.0,0.0,-1.0]},{"extras":{},"name":"Holybro Brushless Motor 2216-880KV-1","children":[15],"rotation":[-0.7071067690849304,0.0,0.0,-0.7071067690849304],"translation":[0.15891174972057343,0.15890106558799745,0.03864999860525131]},{"extras":{},"name":"Body_1","mesh":6,"rotation":[0.0,0.0,0.0,-1.0]},{"extras":{},"name":"1045 propeller-1","children":[17],"rotation":[-0.6611758470535278,0.25069212913513186,0.25069212913513186,-0.6611758470535278],"translation":[0.15891174972057343,0.15890106558799745,0.07464999705553055]},{"extras":{},"name":"Body_1","mesh":7,"rotation":[0.0,0.0,0.0,-1.0]},{"extras":{},"name":"patadrone3definitiva-1","children":[19],"rotation":[-0.6506848335266113,-0.2767837941646576,-0.2767837941646576,-0.6506848335266113],"translation":[-0.1043362244963646,-0.09928090870380402,-0.14329425990581513]},{"extras":{},"name":"Body_1","mesh":8,"rotation":[0.0,0.0,0.0,-1.0]},{"extras":{},"name":"patadrone3definitiva-2","children":[21],"rotation":[-0.27923160791397097,-0.6496381163597107,-0.6496381163597107,-0.27923160791397097],"translation":[0.09668096899986267,-0.10670503228902817,-0.14329425990581513]},{"extras":{},"name":"Body_1","mesh":9,"rotation":[0.0,0.0,0.0,-1.0]},{"extras":{},"name":"patadrone3definitiva-3","children":[23],"rotation":[-0.6529551148414612,0.27138468623161318,0.27138468623161318,-0.6529551148414612],"translation":[-0.09811209887266159,0.10512993484735489,-0.14329425990581513]},{"extras":{},"name":"Body_1","mesh":10,"rotation":[0.0,0.0,0.0,-1.0]},{"extras":{},"name":"patadrone3definitiva-4","children":[25],"rotation":[-0.2670150697231293,0.654754102230072,0.654754102230072,-0.2670150697231293],"translation":[0.10588259994983673,0.09709340333938599,-0.14329425990581513]},{"extras":{},"name":"Body_1","mesh":11,"rotation":[0.0,0.0,0.0,-1.0]},{"extras":{},"name":"AntiVibMount-1","children":[27,28,29,30,31,32],"rotation":[-0.7071067690849304,0.0,0.0,-0.7071067690849304],"translation":[-0.025584751740098,0.04497695341706276,0.01077435351908207]},{"extras":{},"name":"Body_1","mesh":12,"rotation":[0.0,0.0,0.0,-1.0]},{"extras":{},"name":"Body_2","mesh":13,"rotation":[0.0,0.0,0.0,-1.0]},{"extras":{},"name":"Body_3","mesh":14,"rotation":[0.0,0.0,0.0,-1.0]},{"extras":{},"name":"Body_4","mesh":15,"rotation":[0.0,0.0,0.0,-1.0]},{"extras":{},"name":"Body_5","mesh":16,"rotation":[0.0,0.0,0.0,-1.0]},{"extras":{},"name":"Body_6","mesh":17,"rotation":[0.0,0.0,0.0,-1.0]},{"extras":{},"name":"battry-1","children":[34],"rotation":[-0.7071067690849304,0.0,0.0,-0.7071067690849304],"translation":[-0.00448661670088768,-0.00010070741700474173,0.0015999999595806003]},{"extras":{},"name":"Body_1","mesh":18,"rotation":[0.0,0.0,0.0,-1.0]},{"extras":{},"name":"radiolink - Copy-1","children":[36],"rotation":[-0.7071067690849304,0.0,0.0,-0.7071067690849304],"translation":[0.002387263346463442,-0.0008272038539871573,0.04605511575937271]},{"extras":{},"name":"Body_1","mesh":19,"rotation":[0.0,0.0,0.0,-1.0]},{"extras":{},"name":"GPS_MN8_ASM_STEP-1","children":[38,40],"rotation":[0.0,0.0,0.0,-1.0]},{"extras":{},"name":"GPS MOD_L_ _SKELET_.STEP-1","children":[39],"rotation":[-0.7071067690849304,0.0,0.0,-0.7071067690849304],"translation":[-0.06718658655881882,-0.00010965756518999115,0.0015999999595806003]},{"extras":{},"name":"Body_1","mesh":20,"rotation":[0.0,0.0,0.0,-1.0]},{"extras":{},"name":"GPS M8N.STEP-1","children":[41],"rotation":[-0.669773519039154,0.22672322392463685,0.22672322392463685,-0.669773519039154],"translation":[-0.06718658655881882,-0.00010965756518999115,0.14650000631809236]},{"extras":{},"name":"Body_1","mesh":21,"rotation":[0.0,0.0,0.0,-1.0]},{"extras":{},"name":"Canopy (2)-1","children":[43],"rotation":[-0.7071067690849304,0.0,0.0,-0.7071067690849304],"translation":[-1.8474805019152997e-15,-2.349781839307177e-15,0.040881115943193439]},{"extras":{},"name":"Body_1","mesh":22,"rotation":[0.0,0.0,0.0,-1.0]},{"extras":{},"name":"Holybro Brushless Motor 2216-880KV-2","children":[45],"rotation":[-0.5,-0.5,-0.5,-0.5],"translation":[-0.15890106558799745,0.15891174972057343,0.03864999860525131]},{"extras":{},"name":"Body_1","mesh":23,"rotation":[0.0,0.0,0.0,-1.0]},{"extras":{},"name":"Holybro Brushless Motor 2216-880KV-3","children":[47],"rotation":[-2.4688501077356615e-15,0.7071067690849304,0.7071067690849304,-2.4688501077356615e-15],"translation":[-0.15891174972057343,-0.15890106558799745,0.03864999860525131]},{"extras":{},"name":"Body_1","mesh":24,"rotation":[0.0,0.0,0.0,-1.0]},{"extras":{},"name":"Holybro Brushless Motor 2216-880KV-4","children":[49],"rotation":[-0.5,0.5,0.5,-0.5],"translation":[0.15890106558799745,-0.15891174972057343,0.03864999860525131]},{"extras":{},"name":"Body_1","mesh":25,"rotation":[0.0,0.0,0.0,-1.0]},{"extras":{},"name":"1045 propeller-2","children":[51],"rotation":[-0.6447880268096924,-0.2902558147907257,-0.2902558147907257,-0.6447880268096924],"translation":[-0.15890106558799745,0.15891174972057343,0.07464999705553055]},{"extras":{},"name":"Body_1","mesh":26,"rotation":[0.0,0.0,0.0,-1.0]},{"extras":{},"name":"1045 propeller-3","children":[53],"rotation":[-0.25069212913513186,-0.6611758470535278,-0.6611758470535278,-0.25069212913513186],"translation":[-0.15891174972057343,-0.15890106558799745,0.07464999705553055]},{"extras":{},"name":"Body_1","mesh":27,"rotation":[0.0,0.0,0.0,-1.0]},{"extras":{},"name":"1045 propeller-4","children":[55],"rotation":[-0.2902558147907257,0.6447880268096924,0.6447880268096924,-0.2902558147907257],"translation":[0.15890106558799745,-0.15891174972057343,0.07464999705553055]},{"extras":{},"name":"Body_1","mesh":28,"rotation":[0.0,0.0,0.0,-1.0]}],"scene":0,"scenes":[{"nodes":[0]}]}